<?xml version="1.0" encoding="utf-8"?>
<!-- Generator: Adobe Illustrator 15.0.0, SVG Export Plug-In . SVG Version: 6.00 Build 0)  -->
<!DOCTYPE svg PUBLIC "-//W3C//DTD SVG 1.1//EN" "http://www.w3.org/Graphics/SVG/1.1/DTD/svg11.dtd">
<svg version="1.1" id="Layer_1" xmlns="http://www.w3.org/2000/svg" xmlns:xlink="http://www.w3.org/1999/xlink" x="0px" y="0px"
	 width="48px" height="48px" viewBox="0 0 48 48" enable-background="new 0 0 48 48" xml:space="preserve">
<path fill="#FFFFFF" d="M40,12H24l-4-4H8c-2.21,0-3.98,1.79-3.98,4L4,36c0,2.21,1.79,4,4,4h32c2.21,0,4-1.79,4-4V16
	C44,13.79,42.21,12,40,12z M30,18c2.21,0,4,1.79,4,4s-1.79,4-4,4s-4-1.79-4-4S27.79,18,30,18z M38,34H22v-2c0-2.67,5.33-4,8-4
	s8,1.33,8,4V34z"/>
</svg>
