<?xml version="1.0" encoding="utf-8"?>
<!-- Generator: Adobe Illustrator 15.0.0, SVG Export Plug-In . SVG Version: 6.00 Build 0)  -->
<!DOCTYPE svg PUBLIC "-//W3C//DTD SVG 1.1//EN" "http://www.w3.org/Graphics/SVG/1.1/DTD/svg11.dtd">
<svg version="1.1" id="Layer_1" xmlns="http://www.w3.org/2000/svg" xmlns:xlink="http://www.w3.org/1999/xlink" x="0px" y="0px"
	 width="48px" height="48px" viewBox="0 0 48 48" enable-background="new 0 0 48 48" xml:space="preserve">
<path fill="#FFFFFF" d="M18,42c0,1.1,0.9,2,2,2h8c1.1,0,2-0.9,2-2v-2H18V42z M24,4c-7.73,0-14,6.27-14,14c0,4.76,2.38,8.95,6,11.48
	V34c0,1.1,0.9,2,2,2h12c1.1,0,2-0.9,2-2v-4.52c3.62-2.53,6-6.721,6-11.48C38,10.27,31.73,4,24,4z M29.71,26.2L28,27.391V32h-8v-4.6
	l-1.71-1.19C15.6,24.33,14,21.27,14,18.01c0-5.51,4.49-10,10-10s10,4.49,10,10C34,21.26,32.4,24.32,29.71,26.2z"/>
</svg>
