<?xml version="1.0" encoding="utf-8"?>
<!-- Generator: Adobe Illustrator 15.0.0, SVG Export Plug-In . SVG Version: 6.00 Build 0)  -->
<!DOCTYPE svg PUBLIC "-//W3C//DTD SVG 1.1//EN" "http://www.w3.org/Graphics/SVG/1.1/DTD/svg11.dtd">
<svg version="1.1" id="Layer_1" xmlns="http://www.w3.org/2000/svg" xmlns:xlink="http://www.w3.org/1999/xlink" x="0px" y="0px"
	 width="48px" height="48px" viewBox="0 0 48 48" enable-background="new 0 0 48 48" xml:space="preserve">
<path fill="#FFFFFF" d="M34,4H14c-2.21,0-4,1.79-4,4v32c0,2.21,1.79,3.98,4,3.98L34,44c2.21,0,4-1.79,4-4V8C38,5.79,36.21,4,34,4z
	 M24,8c2.21,0,4,1.79,4,4s-1.79,4-4,4s-4-1.79-4-4S21.79,8,24,8z M24,40c-5.52,0-10-4.48-10-10c0-5.52,4.48-10,10-10
	c5.52,0,10,4.48,10,10C34,35.52,29.52,40,24,40z M24,24c-3.31,0-6,2.689-6,6s2.69,6,6,6c3.311,0,6-2.689,6-6S27.311,24,24,24z"/>
</svg>
