<?xml version="1.0" encoding="utf-8"?>
<!-- Generator: Adobe Illustrator 15.0.0, SVG Export Plug-In . SVG Version: 6.00 Build 0)  -->
<!DOCTYPE svg PUBLIC "-//W3C//DTD SVG 1.1//EN" "http://www.w3.org/Graphics/SVG/1.1/DTD/svg11.dtd">
<svg version="1.1" id="Layer_1" xmlns="http://www.w3.org/2000/svg" xmlns:xlink="http://www.w3.org/1999/xlink" x="0px" y="0px"
	 width="48px" height="48px" viewBox="0 0 48 48" enable-background="new 0 0 48 48" xml:space="preserve">
<path fill="#FFFFFF" d="M24,4C12.95,4,4,12.95,4,24s8.95,20,20,20s20-8.95,20-20S35.05,4,24,4z M22,39.859C14.11,38.88,8,32.16,8,24
	c0-1.23,0.15-2.43,0.42-3.58L18,30v2c0,2.21,1.79,4,4,4V39.859z M35.79,34.79C35.279,33.17,33.779,32,32,32h-2v-6c0-1.1-0.9-2-2-2
	H16v-4h4c1.1,0,2-0.9,2-2v-4h4c2.21,0,4-1.79,4-4V9.17c5.859,2.37,10,8.11,10,14.83C40,28.16,38.4,31.939,35.79,34.79z"/>
</svg>
